<mxfile host="app.diagrams.net" agent="Mozilla/5.0 (Windows NT 10.0; Win64; x64) AppleWebKit/537.36 (KHTML, like Gecko) Chrome/140.0.0.0 Safari/537.36 Edg/140.0.0.0" version="28.2.5">
  <diagram name="第 1 页" id="1gyNI4iiBNuNProo9k6n">
    <mxGraphModel dx="2245" dy="792" grid="1" gridSize="10" guides="1" tooltips="1" connect="1" arrows="1" fold="1" page="1" pageScale="1" pageWidth="827" pageHeight="1169" math="0" shadow="0">
      <root>
        <mxCell id="0" />
        <mxCell id="1" parent="0" />
        <mxCell id="ncTGEwrB1sepmx44gU0d-3" style="edgeStyle=orthogonalEdgeStyle;rounded=0;orthogonalLoop=1;jettySize=auto;html=1;" parent="1" source="ncTGEwrB1sepmx44gU0d-2" edge="1">
          <mxGeometry relative="1" as="geometry">
            <mxPoint x="80" y="448" as="targetPoint" />
          </mxGeometry>
        </mxCell>
        <mxCell id="ncTGEwrB1sepmx44gU0d-2" value="STM32" style="rounded=1;whiteSpace=wrap;html=1;" parent="1" vertex="1">
          <mxGeometry x="-100" y="418" width="110" height="60" as="geometry" />
        </mxCell>
        <mxCell id="ncTGEwrB1sepmx44gU0d-4" value="上电" style="text;html=1;align=center;verticalAlign=middle;resizable=0;points=[];autosize=1;strokeColor=none;fillColor=none;" parent="1" vertex="1">
          <mxGeometry x="10" y="426" width="50" height="30" as="geometry" />
        </mxCell>
        <mxCell id="ncTGEwrB1sepmx44gU0d-7" style="edgeStyle=orthogonalEdgeStyle;rounded=0;orthogonalLoop=1;jettySize=auto;html=1;" parent="1" source="ncTGEwrB1sepmx44gU0d-5" edge="1">
          <mxGeometry relative="1" as="geometry">
            <mxPoint x="300" y="448" as="targetPoint" />
          </mxGeometry>
        </mxCell>
        <mxCell id="ncTGEwrB1sepmx44gU0d-5" value="运行BootLoader&lt;div&gt;程序&lt;/div&gt;" style="ellipse;whiteSpace=wrap;html=1;" parent="1" vertex="1">
          <mxGeometry x="80" y="408" width="120" height="80" as="geometry" />
        </mxCell>
        <mxCell id="ncTGEwrB1sepmx44gU0d-8" value="延时1s" style="text;html=1;align=center;verticalAlign=middle;resizable=0;points=[];autosize=1;strokeColor=none;fillColor=none;" parent="1" vertex="1">
          <mxGeometry x="214" y="426" width="60" height="30" as="geometry" />
        </mxCell>
        <mxCell id="ncTGEwrB1sepmx44gU0d-9" value="等待上位机指令" style="text;html=1;align=center;verticalAlign=middle;resizable=0;points=[];autosize=1;strokeColor=none;fillColor=none;" parent="1" vertex="1">
          <mxGeometry x="195" y="446" width="110" height="30" as="geometry" />
        </mxCell>
        <mxCell id="ncTGEwrB1sepmx44gU0d-11" value="" style="strokeWidth=2;html=1;shape=mxgraph.flowchart.annotation_2;align=left;labelPosition=right;pointerEvents=1;" parent="1" vertex="1">
          <mxGeometry x="300" y="398" width="50" height="100" as="geometry" />
        </mxCell>
        <mxCell id="ncTGEwrB1sepmx44gU0d-12" value="接收" style="text;html=1;align=center;verticalAlign=middle;resizable=0;points=[];autosize=1;strokeColor=none;fillColor=none;" parent="1" vertex="1">
          <mxGeometry x="315" y="396" width="50" height="30" as="geometry" />
        </mxCell>
        <mxCell id="ncTGEwrB1sepmx44gU0d-13" value="未接收" style="text;html=1;align=center;verticalAlign=middle;resizable=0;points=[];autosize=1;strokeColor=none;fillColor=none;" parent="1" vertex="1">
          <mxGeometry x="315" y="478" width="60" height="30" as="geometry" />
        </mxCell>
        <mxCell id="ncTGEwrB1sepmx44gU0d-14" value="&lt;div&gt;&lt;br&gt;&lt;/div&gt;&lt;div&gt;退出BootLoader&lt;/div&gt;跳转至APP程序&lt;div&gt;&lt;br&gt;&lt;/div&gt;" style="ellipse;whiteSpace=wrap;html=1;" parent="1" vertex="1">
          <mxGeometry x="540" y="310" width="100" height="62" as="geometry" />
        </mxCell>
        <mxCell id="ncTGEwrB1sepmx44gU0d-26" value="将接收数据存储到&lt;div&gt;BootLoader最后一页&lt;/div&gt;&lt;div&gt;内存地址&lt;/div&gt;" style="ellipse;whiteSpace=wrap;html=1;" parent="1" vertex="1">
          <mxGeometry x="365" y="360" width="120" height="80" as="geometry" />
        </mxCell>
        <mxCell id="ncTGEwrB1sepmx44gU0d-28" value="" style="endArrow=classic;html=1;rounded=0;" parent="1" edge="1">
          <mxGeometry width="50" height="50" relative="1" as="geometry">
            <mxPoint x="350" y="398" as="sourcePoint" />
            <mxPoint x="370" y="398" as="targetPoint" />
          </mxGeometry>
        </mxCell>
        <mxCell id="ncTGEwrB1sepmx44gU0d-31" value="验证内存地址内容&lt;div&gt;是否为魔术值&lt;/div&gt;" style="ellipse;whiteSpace=wrap;html=1;" parent="1" vertex="1">
          <mxGeometry x="540" y="408" width="120" height="80" as="geometry" />
        </mxCell>
        <mxCell id="ncTGEwrB1sepmx44gU0d-34" value="" style="endArrow=none;html=1;rounded=0;" parent="1" edge="1">
          <mxGeometry width="50" height="50" relative="1" as="geometry">
            <mxPoint x="350" y="498" as="sourcePoint" />
            <mxPoint x="510" y="498" as="targetPoint" />
          </mxGeometry>
        </mxCell>
        <mxCell id="ncTGEwrB1sepmx44gU0d-36" value="" style="endArrow=classic;html=1;rounded=0;" parent="1" edge="1">
          <mxGeometry width="50" height="50" relative="1" as="geometry">
            <mxPoint x="506" y="450" as="sourcePoint" />
            <mxPoint x="540" y="448" as="targetPoint" />
          </mxGeometry>
        </mxCell>
        <mxCell id="ncTGEwrB1sepmx44gU0d-38" value="否" style="text;html=1;align=center;verticalAlign=middle;resizable=0;points=[];autosize=1;strokeColor=none;fillColor=none;" parent="1" vertex="1">
          <mxGeometry x="586" y="378" width="40" height="30" as="geometry" />
        </mxCell>
        <mxCell id="ncTGEwrB1sepmx44gU0d-39" value="" style="endArrow=classic;html=1;rounded=0;" parent="1" edge="1">
          <mxGeometry width="50" height="50" relative="1" as="geometry">
            <mxPoint x="595" y="408" as="sourcePoint" />
            <mxPoint x="595" y="370" as="targetPoint" />
          </mxGeometry>
        </mxCell>
        <mxCell id="ncTGEwrB1sepmx44gU0d-40" value="" style="endArrow=classic;html=1;rounded=0;entryX=1;entryY=0;entryDx=0;entryDy=0;" parent="1" edge="1" target="ncTGEwrB1sepmx44gU0d-42">
          <mxGeometry width="50" height="50" relative="1" as="geometry">
            <mxPoint x="596" y="490" as="sourcePoint" />
            <mxPoint x="596" y="550" as="targetPoint" />
          </mxGeometry>
        </mxCell>
        <mxCell id="ncTGEwrB1sepmx44gU0d-41" value="是" style="text;html=1;align=center;verticalAlign=middle;resizable=0;points=[];autosize=1;strokeColor=none;fillColor=none;" parent="1" vertex="1">
          <mxGeometry x="586" y="488" width="40" height="30" as="geometry" />
        </mxCell>
        <mxCell id="ncTGEwrB1sepmx44gU0d-42" value="BootLoader进入OTA模式" style="ellipse;whiteSpace=wrap;html=1;" parent="1" vertex="1">
          <mxGeometry x="498" y="780" width="120" height="80" as="geometry" />
        </mxCell>
        <mxCell id="ncTGEwrB1sepmx44gU0d-43" value="" style="endArrow=none;html=1;rounded=0;" parent="1" edge="1">
          <mxGeometry width="50" height="50" relative="1" as="geometry">
            <mxPoint x="506" y="498" as="sourcePoint" />
            <mxPoint x="506" y="450" as="targetPoint" />
          </mxGeometry>
        </mxCell>
        <mxCell id="ncTGEwrB1sepmx44gU0d-44" value="" style="endArrow=classic;html=1;rounded=0;" parent="1" edge="1">
          <mxGeometry width="50" height="50" relative="1" as="geometry">
            <mxPoint x="485" y="398" as="sourcePoint" />
            <mxPoint x="56" y="450" as="targetPoint" />
            <Array as="points">
              <mxPoint x="516" y="398" />
              <mxPoint x="516" y="340" />
              <mxPoint x="56" y="340" />
            </Array>
          </mxGeometry>
        </mxCell>
        <mxCell id="ncTGEwrB1sepmx44gU0d-45" value="&lt;font style=&quot;font-size: 24px;&quot;&gt;重启&lt;/font&gt;" style="text;html=1;align=center;verticalAlign=middle;resizable=0;points=[];autosize=1;strokeColor=none;fillColor=none;" parent="1" vertex="1">
          <mxGeometry x="245" y="310" width="70" height="40" as="geometry" />
        </mxCell>
        <mxCell id="ncTGEwrB1sepmx44gU0d-46" value="" style="endArrow=classic;html=1;rounded=0;" parent="1" edge="1">
          <mxGeometry width="50" height="50" relative="1" as="geometry">
            <mxPoint x="498" y="819.5" as="sourcePoint" />
            <mxPoint x="444" y="820" as="targetPoint" />
          </mxGeometry>
        </mxCell>
        <mxCell id="ncTGEwrB1sepmx44gU0d-47" value="擦除APP区域" style="ellipse;whiteSpace=wrap;html=1;" parent="1" vertex="1">
          <mxGeometry x="374" y="790" width="69" height="60" as="geometry" />
        </mxCell>
        <mxCell id="ncTGEwrB1sepmx44gU0d-48" value="" style="endArrow=classic;html=1;rounded=0;" parent="1" edge="1">
          <mxGeometry width="50" height="50" relative="1" as="geometry">
            <mxPoint x="374" y="820" as="sourcePoint" />
            <mxPoint x="324" y="820" as="targetPoint" />
          </mxGeometry>
        </mxCell>
        <mxCell id="ncTGEwrB1sepmx44gU0d-50" value="等待包长度字节以0XA5开头" style="ellipse;whiteSpace=wrap;html=1;" parent="1" vertex="1">
          <mxGeometry x="258" y="790" width="69" height="60" as="geometry" />
        </mxCell>
        <mxCell id="ncTGEwrB1sepmx44gU0d-52" value="" style="endArrow=classic;html=1;rounded=0;" parent="1" edge="1">
          <mxGeometry width="50" height="50" relative="1" as="geometry">
            <mxPoint x="258" y="820" as="sourcePoint" />
            <mxPoint x="214" y="820" as="targetPoint" />
          </mxGeometry>
        </mxCell>
        <mxCell id="ncTGEwrB1sepmx44gU0d-54" value="" style="endArrow=classic;html=1;rounded=0;" parent="1" edge="1">
          <mxGeometry width="50" height="50" relative="1" as="geometry">
            <mxPoint x="238" y="820" as="sourcePoint" />
            <mxPoint x="354" y="820" as="targetPoint" />
            <Array as="points">
              <mxPoint x="238" y="770" />
              <mxPoint x="354" y="770" />
            </Array>
          </mxGeometry>
        </mxCell>
        <mxCell id="ncTGEwrB1sepmx44gU0d-55" value="超长" style="text;html=1;align=center;verticalAlign=middle;resizable=0;points=[];autosize=1;strokeColor=none;fillColor=none;" parent="1" vertex="1">
          <mxGeometry x="267.5" y="748" width="50" height="30" as="geometry" />
        </mxCell>
        <mxCell id="ncTGEwrB1sepmx44gU0d-70" value="" style="edgeStyle=orthogonalEdgeStyle;rounded=0;orthogonalLoop=1;jettySize=auto;html=1;" parent="1" source="ncTGEwrB1sepmx44gU0d-57" target="ncTGEwrB1sepmx44gU0d-67" edge="1">
          <mxGeometry relative="1" as="geometry" />
        </mxCell>
        <mxCell id="ncTGEwrB1sepmx44gU0d-57" value="循环接收包数据" style="ellipse;whiteSpace=wrap;html=1;" parent="1" vertex="1">
          <mxGeometry x="144" y="790" width="69" height="60" as="geometry" />
        </mxCell>
        <mxCell id="ncTGEwrB1sepmx44gU0d-58" value="" style="endArrow=classic;html=1;rounded=0;" parent="1" edge="1">
          <mxGeometry width="50" height="50" relative="1" as="geometry">
            <mxPoint x="284" y="850" as="sourcePoint" />
            <mxPoint x="284" y="900" as="targetPoint" />
          </mxGeometry>
        </mxCell>
        <mxCell id="ncTGEwrB1sepmx44gU0d-59" value="若长度为0xFF&lt;div&gt;完成升级&lt;/div&gt;" style="text;html=1;align=center;verticalAlign=middle;resizable=0;points=[];autosize=1;strokeColor=none;fillColor=none;" parent="1" vertex="1">
          <mxGeometry x="274" y="850" width="100" height="40" as="geometry" />
        </mxCell>
        <mxCell id="ncTGEwrB1sepmx44gU0d-61" value="清除内存中的魔术值&lt;div&gt;&lt;br&gt;&lt;/div&gt;" style="ellipse;whiteSpace=wrap;html=1;" parent="1" vertex="1">
          <mxGeometry x="248" y="900" width="69" height="60" as="geometry" />
        </mxCell>
        <mxCell id="ncTGEwrB1sepmx44gU0d-65" value="" style="endArrow=classic;html=1;rounded=0;" parent="1" edge="1">
          <mxGeometry width="50" height="50" relative="1" as="geometry">
            <mxPoint x="104" y="820" as="sourcePoint" />
            <mxPoint x="104" y="820" as="targetPoint" />
          </mxGeometry>
        </mxCell>
        <mxCell id="1AQSV70HwPeG1_D0GXFB-35" style="edgeStyle=orthogonalEdgeStyle;rounded=0;orthogonalLoop=1;jettySize=auto;html=1;entryX=0.042;entryY=0.645;entryDx=0;entryDy=0;entryPerimeter=0;dashed=1;" edge="1" parent="1" source="ncTGEwrB1sepmx44gU0d-67" target="1AQSV70HwPeG1_D0GXFB-33">
          <mxGeometry relative="1" as="geometry">
            <mxPoint x="-46" y="690" as="targetPoint" />
            <Array as="points">
              <mxPoint x="-66" y="820" />
              <mxPoint x="-66" y="690" />
              <mxPoint x="134" y="690" />
              <mxPoint x="134" y="688" />
            </Array>
          </mxGeometry>
        </mxCell>
        <mxCell id="ncTGEwrB1sepmx44gU0d-67" value="写入内存&lt;div&gt;回传0X5A&lt;/div&gt;&lt;div&gt;表示接收完成&lt;/div&gt;" style="ellipse;whiteSpace=wrap;html=1;" parent="1" vertex="1">
          <mxGeometry x="4" y="785" width="83" height="70" as="geometry" />
        </mxCell>
        <mxCell id="ncTGEwrB1sepmx44gU0d-69" value="" style="endArrow=classic;html=1;rounded=0;" parent="1" edge="1">
          <mxGeometry width="50" height="50" relative="1" as="geometry">
            <mxPoint x="144" y="820" as="sourcePoint" />
            <mxPoint x="144" y="820" as="targetPoint" />
          </mxGeometry>
        </mxCell>
        <mxCell id="ncTGEwrB1sepmx44gU0d-71" value="达到长度" style="text;html=1;align=center;verticalAlign=middle;resizable=0;points=[];autosize=1;strokeColor=none;fillColor=none;" parent="1" vertex="1">
          <mxGeometry x="79" y="818" width="70" height="30" as="geometry" />
        </mxCell>
        <mxCell id="ncTGEwrB1sepmx44gU0d-72" value="" style="endArrow=classic;html=1;rounded=0;" parent="1" edge="1">
          <mxGeometry width="50" height="50" relative="1" as="geometry">
            <mxPoint x="44" y="785" as="sourcePoint" />
            <mxPoint x="364" y="820" as="targetPoint" />
            <Array as="points">
              <mxPoint x="44" y="740" />
              <mxPoint x="364" y="740" />
            </Array>
          </mxGeometry>
        </mxCell>
        <mxCell id="ncTGEwrB1sepmx44gU0d-73" value="继续接收下一个包" style="text;html=1;align=center;verticalAlign=middle;resizable=0;points=[];autosize=1;strokeColor=none;fillColor=none;" parent="1" vertex="1">
          <mxGeometry x="104" y="740" width="120" height="30" as="geometry" />
        </mxCell>
        <mxCell id="ncTGEwrB1sepmx44gU0d-76" value="长度正常" style="text;html=1;align=center;verticalAlign=middle;resizable=0;points=[];autosize=1;strokeColor=none;fillColor=none;" parent="1" vertex="1">
          <mxGeometry x="203" y="820" width="70" height="30" as="geometry" />
        </mxCell>
        <mxCell id="ncTGEwrB1sepmx44gU0d-78" value="" style="endArrow=classic;html=1;rounded=0;entryX=1;entryY=0.5;entryDx=0;entryDy=0;exitX=1;exitY=0.5;exitDx=0;exitDy=0;" parent="1" target="ncTGEwrB1sepmx44gU0d-14" edge="1" source="ncTGEwrB1sepmx44gU0d-61">
          <mxGeometry width="50" height="50" relative="1" as="geometry">
            <mxPoint x="369" y="700" as="sourcePoint" />
            <mxPoint x="419" y="650" as="targetPoint" />
            <Array as="points">
              <mxPoint x="674" y="930" />
              <mxPoint x="676" y="700" />
              <mxPoint x="676" y="340" />
            </Array>
          </mxGeometry>
        </mxCell>
        <mxCell id="1AQSV70HwPeG1_D0GXFB-1" value="" style="endArrow=classic;html=1;rounded=0;" edge="1" parent="1">
          <mxGeometry width="50" height="50" relative="1" as="geometry">
            <mxPoint x="586" y="310" as="sourcePoint" />
            <mxPoint x="584" y="240" as="targetPoint" />
          </mxGeometry>
        </mxCell>
        <mxCell id="1AQSV70HwPeG1_D0GXFB-3" value="&lt;div&gt;运行APP&lt;/div&gt;" style="ellipse;whiteSpace=wrap;html=1;" vertex="1" parent="1">
          <mxGeometry x="534" y="180" width="100" height="62" as="geometry" />
        </mxCell>
        <mxCell id="1AQSV70HwPeG1_D0GXFB-4" value="" style="endArrow=classic;html=1;rounded=0;" edge="1" parent="1">
          <mxGeometry width="50" height="50" relative="1" as="geometry">
            <mxPoint x="534" y="210" as="sourcePoint" />
            <mxPoint x="474" y="340" as="targetPoint" />
            <Array as="points">
              <mxPoint x="474" y="210" />
            </Array>
          </mxGeometry>
        </mxCell>
        <mxCell id="1AQSV70HwPeG1_D0GXFB-5" value="触发重启命令中断" style="text;html=1;align=center;verticalAlign=middle;resizable=0;points=[];autosize=1;strokeColor=none;fillColor=none;rotation=90;" vertex="1" parent="1">
          <mxGeometry x="404" y="260" width="120" height="30" as="geometry" />
        </mxCell>
        <mxCell id="1AQSV70HwPeG1_D0GXFB-6" value="上位机&lt;div&gt;编译app.&lt;span style=&quot;background-color: transparent; color: light-dark(rgb(0, 0, 0), rgb(255, 255, 255));&quot;&gt;bin&lt;/span&gt;&lt;span style=&quot;background-color: transparent; color: light-dark(rgb(0, 0, 0), rgb(255, 255, 255));&quot;&gt;应用程序&lt;/span&gt;&lt;/div&gt;&lt;div&gt;&lt;span style=&quot;background-color: transparent; color: light-dark(rgb(0, 0, 0), rgb(255, 255, 255));&quot;&gt;运行OTA脚本&lt;/span&gt;&lt;/div&gt;" style="rounded=1;whiteSpace=wrap;html=1;fillColor=#dae8fc;strokeColor=#6c8ebf;" vertex="1" parent="1">
          <mxGeometry x="-110" y="575" width="120" height="60" as="geometry" />
        </mxCell>
        <mxCell id="1AQSV70HwPeG1_D0GXFB-7" value="" style="endArrow=classic;html=1;rounded=0;fillColor=#dae8fc;strokeColor=#6c8ebf;entryX=0;entryY=0.5;entryDx=0;entryDy=0;" edge="1" parent="1" target="1AQSV70HwPeG1_D0GXFB-8">
          <mxGeometry width="50" height="50" relative="1" as="geometry">
            <mxPoint x="10" y="605" as="sourcePoint" />
            <mxPoint x="34" y="610" as="targetPoint" />
          </mxGeometry>
        </mxCell>
        <mxCell id="1AQSV70HwPeG1_D0GXFB-8" value="向stm32发送重启命令" style="ellipse;whiteSpace=wrap;html=1;fillColor=#dae8fc;strokeColor=#6c8ebf;" vertex="1" parent="1">
          <mxGeometry x="34" y="575" width="80" height="55" as="geometry" />
        </mxCell>
        <mxCell id="1AQSV70HwPeG1_D0GXFB-9" value="" style="endArrow=classic;html=1;rounded=0;entryX=1.08;entryY=0.633;entryDx=0;entryDy=0;entryPerimeter=0;dashed=1;" edge="1" parent="1" target="ncTGEwrB1sepmx44gU0d-4">
          <mxGeometry width="50" height="50" relative="1" as="geometry">
            <mxPoint x="64" y="580" as="sourcePoint" />
            <mxPoint x="114" y="530" as="targetPoint" />
          </mxGeometry>
        </mxCell>
        <mxCell id="1AQSV70HwPeG1_D0GXFB-10" value="中断触发强制重启" style="text;html=1;align=center;verticalAlign=middle;resizable=0;points=[];autosize=1;strokeColor=none;fillColor=none;rotation=90;" vertex="1" parent="1">
          <mxGeometry x="-6" y="498" width="120" height="30" as="geometry" />
        </mxCell>
        <mxCell id="1AQSV70HwPeG1_D0GXFB-11" value="" style="endArrow=classic;html=1;rounded=0;fillColor=#dae8fc;strokeColor=#6c8ebf;" edge="1" parent="1">
          <mxGeometry width="50" height="50" relative="1" as="geometry">
            <mxPoint x="114" y="605" as="sourcePoint" />
            <mxPoint x="144" y="605" as="targetPoint" />
          </mxGeometry>
        </mxCell>
        <mxCell id="1AQSV70HwPeG1_D0GXFB-18" value="" style="edgeStyle=orthogonalEdgeStyle;rounded=0;orthogonalLoop=1;jettySize=auto;html=1;fillColor=#dae8fc;strokeColor=#6c8ebf;" edge="1" parent="1" source="1AQSV70HwPeG1_D0GXFB-13" target="1AQSV70HwPeG1_D0GXFB-17">
          <mxGeometry relative="1" as="geometry" />
        </mxCell>
        <mxCell id="1AQSV70HwPeG1_D0GXFB-13" value="等待STM32启动信息" style="ellipse;whiteSpace=wrap;html=1;fillColor=#dae8fc;strokeColor=#6c8ebf;" vertex="1" parent="1">
          <mxGeometry x="144" y="577" width="80" height="55" as="geometry" />
        </mxCell>
        <mxCell id="1AQSV70HwPeG1_D0GXFB-14" value="" style="endArrow=classic;html=1;rounded=0;entryX=0.388;entryY=0.036;entryDx=0;entryDy=0;entryPerimeter=0;dashed=1;" edge="1" parent="1" target="1AQSV70HwPeG1_D0GXFB-13">
          <mxGeometry width="50" height="50" relative="1" as="geometry">
            <mxPoint x="174" y="478" as="sourcePoint" />
            <mxPoint x="224" y="428" as="targetPoint" />
          </mxGeometry>
        </mxCell>
        <mxCell id="1AQSV70HwPeG1_D0GXFB-15" value="发送启动信息" style="text;html=1;align=center;verticalAlign=middle;resizable=0;points=[];autosize=1;strokeColor=none;fillColor=none;rotation=90;" vertex="1" parent="1">
          <mxGeometry x="134" y="508" width="100" height="30" as="geometry" />
        </mxCell>
        <mxCell id="1AQSV70HwPeG1_D0GXFB-24" value="" style="edgeStyle=orthogonalEdgeStyle;rounded=0;orthogonalLoop=1;jettySize=auto;html=1;fillColor=#dae8fc;strokeColor=#6c8ebf;" edge="1" parent="1" source="1AQSV70HwPeG1_D0GXFB-17" target="1AQSV70HwPeG1_D0GXFB-21">
          <mxGeometry relative="1" as="geometry" />
        </mxCell>
        <mxCell id="1AQSV70HwPeG1_D0GXFB-17" value="发送魔术值" style="ellipse;whiteSpace=wrap;html=1;fillColor=#dae8fc;strokeColor=#6c8ebf;" vertex="1" parent="1">
          <mxGeometry x="267.5" y="577" width="80" height="55" as="geometry" />
        </mxCell>
        <mxCell id="1AQSV70HwPeG1_D0GXFB-19" value="" style="endArrow=classic;html=1;rounded=0;entryX=0;entryY=0.5;entryDx=0;entryDy=0;entryPerimeter=0;dashed=1;" edge="1" parent="1" target="ncTGEwrB1sepmx44gU0d-11">
          <mxGeometry width="50" height="50" relative="1" as="geometry">
            <mxPoint x="297.5" y="578" as="sourcePoint" />
            <mxPoint x="347.5" y="528" as="targetPoint" />
          </mxGeometry>
        </mxCell>
        <mxCell id="1AQSV70HwPeG1_D0GXFB-21" value="等待OTA触发" style="ellipse;whiteSpace=wrap;html=1;fillColor=#dae8fc;strokeColor=#6c8ebf;" vertex="1" parent="1">
          <mxGeometry x="506" y="577" width="80" height="55" as="geometry" />
        </mxCell>
        <mxCell id="1AQSV70HwPeG1_D0GXFB-25" value="" style="endArrow=classic;html=1;rounded=0;entryX=0.5;entryY=1;entryDx=0;entryDy=0;dashed=1;exitX=0.433;exitY=0.025;exitDx=0;exitDy=0;exitPerimeter=0;" edge="1" parent="1" source="ncTGEwrB1sepmx44gU0d-42" target="1AQSV70HwPeG1_D0GXFB-21">
          <mxGeometry width="50" height="50" relative="1" as="geometry">
            <mxPoint x="544" y="780" as="sourcePoint" />
            <mxPoint x="594" y="730" as="targetPoint" />
          </mxGeometry>
        </mxCell>
        <mxCell id="1AQSV70HwPeG1_D0GXFB-26" value="发送OTA信息" style="text;html=1;align=center;verticalAlign=middle;resizable=0;points=[];autosize=1;strokeColor=none;fillColor=none;rotation=90;" vertex="1" parent="1">
          <mxGeometry x="485" y="678" width="100" height="30" as="geometry" />
        </mxCell>
        <mxCell id="1AQSV70HwPeG1_D0GXFB-27" value="封装单个包&lt;div&gt;&lt;br&gt;&lt;/div&gt;" style="ellipse;whiteSpace=wrap;html=1;fillColor=#dae8fc;strokeColor=#6c8ebf;gradientColor=none;" vertex="1" parent="1">
          <mxGeometry x="350" y="653" width="80" height="55" as="geometry" />
        </mxCell>
        <mxCell id="1AQSV70HwPeG1_D0GXFB-28" value="" style="endArrow=classic;html=1;rounded=0;entryX=1;entryY=0.5;entryDx=0;entryDy=0;fillColor=#dae8fc;strokeColor=#6c8ebf;" edge="1" parent="1" target="1AQSV70HwPeG1_D0GXFB-27">
          <mxGeometry width="50" height="50" relative="1" as="geometry">
            <mxPoint x="521" y="627" as="sourcePoint" />
            <mxPoint x="571" y="577" as="targetPoint" />
          </mxGeometry>
        </mxCell>
        <mxCell id="1AQSV70HwPeG1_D0GXFB-34" value="" style="edgeStyle=orthogonalEdgeStyle;rounded=0;orthogonalLoop=1;jettySize=auto;html=1;fillColor=#dae8fc;strokeColor=#6c8ebf;" edge="1" parent="1" source="1AQSV70HwPeG1_D0GXFB-29" target="1AQSV70HwPeG1_D0GXFB-33">
          <mxGeometry relative="1" as="geometry" />
        </mxCell>
        <mxCell id="1AQSV70HwPeG1_D0GXFB-29" value="&lt;div&gt;发送包&lt;/div&gt;" style="ellipse;whiteSpace=wrap;html=1;fillColor=#dae8fc;strokeColor=#6c8ebf;gradientColor=none;" vertex="1" parent="1">
          <mxGeometry x="240" y="653" width="80" height="55" as="geometry" />
        </mxCell>
        <mxCell id="1AQSV70HwPeG1_D0GXFB-30" value="" style="endArrow=classic;html=1;rounded=0;entryX=1;entryY=0.5;entryDx=0;entryDy=0;fillColor=#dae8fc;strokeColor=#6c8ebf;exitX=0;exitY=0.5;exitDx=0;exitDy=0;" edge="1" parent="1" source="1AQSV70HwPeG1_D0GXFB-27" target="1AQSV70HwPeG1_D0GXFB-29">
          <mxGeometry width="50" height="50" relative="1" as="geometry">
            <mxPoint x="415" y="680" as="sourcePoint" />
            <mxPoint x="324" y="734" as="targetPoint" />
          </mxGeometry>
        </mxCell>
        <mxCell id="1AQSV70HwPeG1_D0GXFB-31" value="" style="endArrow=classic;html=1;rounded=0;entryX=0.291;entryY=0.021;entryDx=0;entryDy=0;entryPerimeter=0;dashed=1;" edge="1" parent="1" target="ncTGEwrB1sepmx44gU0d-50">
          <mxGeometry width="50" height="50" relative="1" as="geometry">
            <mxPoint x="277" y="708" as="sourcePoint" />
            <mxPoint x="327" y="658" as="targetPoint" />
          </mxGeometry>
        </mxCell>
        <mxCell id="1AQSV70HwPeG1_D0GXFB-33" value="&lt;div&gt;等待回传&lt;/div&gt;" style="ellipse;whiteSpace=wrap;html=1;fillColor=#dae8fc;strokeColor=#6c8ebf;gradientColor=none;" vertex="1" parent="1">
          <mxGeometry x="134" y="653" width="80" height="55" as="geometry" />
        </mxCell>
        <mxCell id="1AQSV70HwPeG1_D0GXFB-36" value="" style="endArrow=classic;html=1;rounded=0;fillColor=#dae8fc;strokeColor=#6c8ebf;" edge="1" parent="1">
          <mxGeometry width="50" height="50" relative="1" as="geometry">
            <mxPoint x="174" y="655" as="sourcePoint" />
            <mxPoint x="474" y="655" as="targetPoint" />
            <Array as="points">
              <mxPoint x="384" y="630" />
            </Array>
          </mxGeometry>
        </mxCell>
        <mxCell id="1AQSV70HwPeG1_D0GXFB-38" value="发送下一个包" style="edgeLabel;html=1;align=center;verticalAlign=middle;resizable=0;points=[];" vertex="1" connectable="0" parent="1AQSV70HwPeG1_D0GXFB-36">
          <mxGeometry x="-0.2557" y="3" relative="1" as="geometry">
            <mxPoint as="offset" />
          </mxGeometry>
        </mxCell>
      </root>
    </mxGraphModel>
  </diagram>
</mxfile>
